<?xml version="1.0" standalone="no"?>
<!DOCTYPE svg PUBLIC "-//W3C//DTD SVG 20010904//EN"
 "http://www.w3.org/TR/2001/REC-SVG-20010904/DTD/svg10.dtd">
<svg version="1.0" xmlns="http://www.w3.org/2000/svg"
 width="600.000000pt" height="600.000000pt" viewBox="0 0 600.000000 600.000000"
 preserveAspectRatio="xMidYMid meet">
<metadata>
Created by potrace 1.14, written by Peter Selinger 2001-2017
</metadata>
<g transform="translate(0.000000,600.000000) scale(0.100000,-0.100000)"
fill="#000000" stroke="none">
<path d="M2925 4215 c-48 -51 -92 -67 -250 -90 -167 -24 -262 -50 -306 -85
-83 -66 -222 -117 -364 -134 -93 -11 -224 -64 -279 -113 -38 -35 -82 -58 -127
-67 -60 -11 -191 -71 -237 -107 -21 -16 -27 -17 -45 -5 -31 20 -160 71 -232
92 -72 21 -132 49 -162 76 -12 11 -26 17 -33 13 -6 -3 -9 -3 -8 2 3 9 -162
169 -232 225 -93 74 -238 132 -361 143 -122 11 -127 4 -133 -173 -2 -56 -9
-108 -15 -115 -8 -10 -7 -17 2 -27 10 -12 9 -12 -3 -4 -21 14 -39 12 -50 -6
-7 -12 -9 -10 -7 7 0 12 5 19 11 16 5 -3 6 -1 2 5 -10 17 -13 15 -31 -15 -9
-16 -14 -20 -11 -11 3 11 1 15 -8 12 -8 -3 -17 0 -21 6 -6 9 -10 9 -16 -1 -13
-21 -11 -1326 1 -1350 6 -10 20 -19 31 -19 13 0 18 -4 13 -12 -4 -7 -3 -8 5
-4 6 4 9 12 6 17 -4 5 -2 9 4 9 5 0 16 3 25 6 9 3 16 1 16 -5 0 -6 -5 -10 -11
-9 -6 2 -13 -3 -14 -10 -2 -7 -1 -8 2 -2 3 6 12 3 21 -8 10 -10 13 -12 8 -5
-5 8 -5 17 -1 21 4 4 10 1 12 -5 3 -7 9 -13 14 -13 6 0 7 5 3 12 -4 7 -3 8 5
4 9 -6 9 -11 0 -22 -6 -8 -7 -14 -2 -14 5 0 10 -117 10 -282 1 -156 2 -300 2
-320 l1 -38 1128 0 c621 0 1132 3 1136 7 9 9 37 13 32 4 -3 -4 5 -8 17 -8 17
-2 19 0 7 7 -11 7 -1 10 33 10 56 0 63 -2 59 -15 -2 -5 2 -4 9 3 7 6 36 12 65
12 33 0 54 -5 57 -12 4 -10 6 -10 6 0 1 17 291 17 310 0 11 -10 13 -10 7 0 -5
8 2 12 24 12 18 0 29 -4 25 -10 -8 -13 2714 -14 2735 0 13 8 15 93 15 652 l0
642 -23 27 c-43 52 -238 99 -413 100 -98 1 -111 3 -122 21 -30 49 -375 239
-440 242 -23 1 -37 9 -52 31 -11 16 -36 37 -55 47 -54 27 -231 108 -236 108
-2 0 -53 21 -112 46 -151 66 -201 84 -217 78 -7 -3 -18 3 -24 13 -5 11 -31 31
-58 45 -77 42 -339 148 -365 148 -13 0 -29 5 -35 11 -12 12 -254 104 -473 180
-68 24 -140 42 -175 44 -60 4 -60 4 -100 -40z m-2877 -1710 c-3 -3 -9 2 -12
12 -6 14 -5 15 5 6 7 -7 10 -15 7 -18z"/>
<path d="M113 3880 c-1 -11 2 -18 8 -15 11 7 12 35 1 35 -4 0 -8 -9 -9 -20z"/>
</g>
</svg>
